<svg width="86" height="92" viewBox="0 0 86 92" fill="none" xmlns="http://www.w3.org/2000/svg">
<g id="account_circle_FILL0_wght400_GRAD0_opsz24 1">
<path id="Vector" d="M20.9625 65.55C24.0084 63.0583 27.4125 61.0937 31.175 59.6562C34.9375 58.2187 38.8792 57.5 43 57.5C47.1209 57.5 51.0625 58.2187 54.825 59.6562C58.5875 61.0937 61.9917 63.0583 65.0375 65.55C67.1278 62.9305 68.7552 59.9597 69.9198 56.6375C71.0844 53.3153 71.6667 49.7694 71.6667 46C71.6667 37.5028 68.8747 30.2674 63.2906 24.2937C57.7066 18.3201 50.9431 15.3333 43 15.3333C35.057 15.3333 28.2934 18.3201 22.7094 24.2937C17.1254 30.2674 14.3334 37.5028 14.3334 46C14.3334 49.7694 14.9156 53.3153 16.0802 56.6375C17.2448 59.9597 18.8722 62.9305 20.9625 65.55ZM43 49.8333C39.4764 49.8333 36.5052 48.5396 34.0865 45.9521C31.6677 43.3646 30.4584 40.1861 30.4584 36.4167C30.4584 32.6472 31.6677 29.4687 34.0865 26.8812C36.5052 24.2937 39.4764 23 43 23C46.5236 23 49.4948 24.2937 51.9136 26.8812C54.3323 29.4687 55.5417 32.6472 55.5417 36.4167C55.5417 40.1861 54.3323 43.3646 51.9136 45.9521C49.4948 48.5396 46.5236 49.8333 43 49.8333ZM43 84.3333C38.0431 84.3333 33.3847 83.3271 29.025 81.3146C24.6653 79.3021 20.8729 76.5708 17.6479 73.1208C14.4229 69.6708 11.8698 65.6139 9.98856 60.95C8.10731 56.2861 7.16669 51.3028 7.16669 46C7.16669 40.6972 8.10731 35.7139 9.98856 31.05C11.8698 26.3861 14.4229 22.3292 17.6479 18.8792C20.8729 15.4292 24.6653 12.6979 29.025 10.6854C33.3847 8.67291 38.0431 7.66666 43 7.66666C47.957 7.66666 52.6153 8.67291 56.975 10.6854C61.3347 12.6979 65.1271 15.4292 68.3521 18.8792C71.5771 22.3292 74.1302 26.3861 76.0115 31.05C77.8927 35.7139 78.8334 40.6972 78.8334 46C78.8334 51.3028 77.8927 56.2861 76.0115 60.95C74.1302 65.6139 71.5771 69.6708 68.3521 73.1208C65.1271 76.5708 61.3347 79.3021 56.975 81.3146C52.6153 83.3271 47.957 84.3333 43 84.3333ZM43 76.6667C46.1653 76.6667 49.1514 76.1715 51.9584 75.1812C54.7653 74.191 57.3334 72.7694 59.6625 70.9167C57.3334 69.0639 54.7653 67.6423 51.9584 66.6521C49.1514 65.6618 46.1653 65.1667 43 65.1667C39.8347 65.1667 36.8486 65.6618 34.0417 66.6521C31.2347 67.6423 28.6667 69.0639 26.3375 70.9167C28.6667 72.7694 31.2347 74.191 34.0417 75.1812C36.8486 76.1715 39.8347 76.6667 43 76.6667ZM43 42.1667C44.5528 42.1667 45.8368 41.6236 46.8521 40.5375C47.8674 39.4514 48.375 38.0778 48.375 36.4167C48.375 34.7555 47.8674 33.3819 46.8521 32.2958C45.8368 31.2097 44.5528 30.6667 43 30.6667C41.4472 30.6667 40.1632 31.2097 39.1479 32.2958C38.1327 33.3819 37.625 34.7555 37.625 36.4167C37.625 38.0778 38.1327 39.4514 39.1479 40.5375C40.1632 41.6236 41.4472 42.1667 43 42.1667Z" fill="#2C3E50"/>
</g>
</svg>
