<svg width="251" height="135" viewBox="0 0 251 135" fill="none" xmlns="http://www.w3.org/2000/svg">
<path d="M88.88 133.24C87.8933 133.667 86.7467 133.973 85.44 134.16C84.1333 134.347 82.92 134.44 81.8 134.44C78.1733 134.44 75.3333 133.493 73.28 131.6C71.2267 129.707 70.2 126.8 70.2 122.88C70.2 118.88 71.28 115.893 73.44 113.92C75.6 111.92 78.64 110.92 82.56 110.92C84.4267 110.92 86.3733 111.173 88.4 111.68C88.4 112.213 88.3467 113.013 88.24 114.08C88.1333 115.12 88.0267 115.853 87.92 116.28H85.4C83.56 116.28 82.1067 116.32 81.04 116.4C80 116.453 79.3733 116.573 79.16 116.76C78.76 117.133 78.4533 117.893 78.24 119.04C78.0267 120.16 77.92 121.24 77.92 122.28C77.92 124.093 78.1467 125.493 78.6 126.48C79.0533 127.44 79.6267 128.08 80.32 128.4C80.9867 128.72 82.0933 128.88 83.64 128.88C84.8667 128.88 86.4667 128.773 88.44 128.56L88.88 133.24Z" fill="#F6F8F9"/>
<path d="M109.548 115.6V134H103.988L103.228 130.92C101.308 133.24 99.0145 134.4 96.3478 134.4C95.3878 134.4 94.4811 134.267 93.6278 134C92.8011 133.733 92.1745 133.347 91.7478 132.84C91.5078 132.547 91.3211 131.813 91.1878 130.64C91.0811 129.467 91.0278 127.68 91.0278 125.28V115.6H97.8678V125.2C97.8678 125.733 97.8811 126.36 97.9078 127.08C97.9345 127.8 98.0145 128.253 98.1478 128.44C98.3345 128.707 98.8678 128.84 99.7478 128.84L100.388 128.8C101.134 128.773 101.908 128.6 102.708 128.28V115.6H109.548Z" fill="#F6F8F9"/>
<path d="M141.588 116.88C142.014 117.52 142.228 120 142.228 124.32V134H135.387V122.84C135.387 121.853 135.294 121.267 135.107 121.08C134.894 120.867 134.441 120.76 133.747 120.76L133.268 120.8C132.441 120.853 131.654 121.04 130.908 121.36C130.934 121.92 130.947 122.907 130.947 124.32V134H124.107V122.6C124.107 121.773 124.014 121.267 123.827 121.08C123.614 120.867 123.161 120.76 122.467 120.76L121.988 120.8C121.241 120.827 120.468 121 119.668 121.32V134H112.827V115.6H118.387L119.107 118.6C119.987 117.427 121.001 116.573 122.147 116.04C123.294 115.48 124.454 115.2 125.628 115.2C126.614 115.2 127.548 115.347 128.428 115.64C129.334 115.933 129.961 116.347 130.307 116.88C130.467 117.12 130.601 117.56 130.708 118.2C131.561 117.16 132.534 116.4 133.628 115.92C134.721 115.44 135.814 115.2 136.908 115.2C137.894 115.2 138.828 115.347 139.708 115.64C140.614 115.933 141.241 116.347 141.588 116.88Z" fill="#F6F8F9"/>
<path d="M163.806 115.6V134H158.246L157.486 130.92C155.566 133.24 153.272 134.4 150.606 134.4C149.646 134.4 148.739 134.267 147.886 134C147.059 133.733 146.432 133.347 146.006 132.84C145.766 132.547 145.579 131.813 145.446 130.64C145.339 129.467 145.286 127.68 145.286 125.28V115.6H152.126V125.2C152.126 125.733 152.139 126.36 152.166 127.08C152.192 127.8 152.272 128.253 152.406 128.44C152.592 128.707 153.126 128.84 154.006 128.84L154.646 128.8C155.392 128.773 156.166 128.6 156.966 128.28V115.6H163.806Z" fill="#F6F8F9"/>
<path d="M167.205 110L174.045 109.72V134H167.205V110Z" fill="#F6F8F9"/>
<path d="M195.837 115.6V134H190.277L189.517 130.92C187.597 133.24 185.304 134.4 182.637 134.4C181.677 134.4 180.77 134.267 179.917 134C179.09 133.733 178.464 133.347 178.037 132.84C177.797 132.547 177.61 131.813 177.477 130.64C177.37 129.467 177.317 127.68 177.317 125.28V115.6H184.157V125.2C184.157 125.733 184.17 126.36 184.197 127.08C184.224 127.8 184.304 128.253 184.437 128.44C184.624 128.707 185.157 128.84 186.037 128.84L186.677 128.8C187.424 128.773 188.197 128.6 188.997 128.28V115.6H195.837Z" fill="#F6F8F9"/>
<path d="M213.997 127.76C213.997 130.133 213.237 131.84 211.717 132.88C210.223 133.92 208.09 134.44 205.317 134.44C203.37 134.44 201.13 134.16 198.597 133.6C198.65 133.067 198.77 132.307 198.957 131.32C199.17 130.307 199.343 129.533 199.477 129C200.437 129.16 201.503 129.293 202.677 129.4C203.85 129.48 204.85 129.52 205.677 129.52C206.397 129.52 206.837 129.48 206.997 129.4C207.023 129.373 207.05 129.307 207.077 129.2C207.13 129.067 207.157 128.933 207.157 128.8C207.157 128.267 206.823 127.907 206.157 127.72C205.943 127.667 205.13 127.44 203.717 127.04C202.303 126.64 201.143 125.92 200.237 124.88C199.357 123.813 198.917 122.493 198.917 120.92C198.917 120.093 199.103 119.173 199.477 118.16C199.85 117.147 200.25 116.507 200.677 116.24C200.997 116.027 201.77 115.813 202.997 115.6C204.223 115.36 205.357 115.24 206.397 115.24C208.61 115.24 210.837 115.4 213.077 115.72C213.077 116.2 213.01 117.013 212.877 118.16C212.743 119.28 212.623 119.987 212.517 120.28C210.25 119.987 208.423 119.84 207.037 119.84C206.317 119.84 205.85 119.88 205.637 119.96C205.583 119.987 205.53 120.067 205.477 120.2C205.423 120.307 205.397 120.453 205.397 120.64C205.397 121.013 205.517 121.28 205.757 121.44C205.997 121.627 206.623 121.853 207.637 122.12C208.837 122.467 209.863 122.827 210.717 123.2C211.597 123.573 212.357 124.133 212.997 124.88C213.663 125.627 213.997 126.587 213.997 127.76Z" fill="#F6F8F9"/>
<path d="M234.601 134H227.401V116.2H220.961V111.2H241.041V116.2H234.601V134Z" fill="#F6F8F9"/>
<path d="M243.384 111.2H250.584V134H243.384V111.2Z" fill="#F6F8F9"/>
<path d="M34.5 95C24.9864 95 16.858 91.8828 10.1148 85.6484C3.37159 79.4141 0 71.7943 0 62.7891C0 55.0703 2.45682 48.1927 7.37045 42.1562C12.2841 36.1198 18.7136 32.2604 26.6591 30.5781C29.2727 21.474 34.5 14.1016 42.3409 8.46094C50.1818 2.82031 59.0682 0 69 0C81.2318 0 91.608 4.03255 100.128 12.0977C108.649 20.1628 112.909 29.9844 112.909 41.5625C120.123 42.3542 126.108 45.2982 130.865 50.3945C135.622 55.4909 138 61.4531 138 68.2812C138 75.7031 135.256 82.0117 129.767 87.207C124.278 92.4023 117.614 95 109.773 95H75.2727C71.8227 95 68.8693 93.8372 66.4125 91.5117C63.9557 89.1862 62.7273 86.3906 62.7273 83.125V52.5469L52.6909 61.75L43.9091 53.4375L69 29.6875L94.0909 53.4375L85.3091 61.75L75.2727 52.5469V83.125H109.773C114.164 83.125 117.875 81.6901 120.907 78.8203C123.939 75.9505 125.455 72.4375 125.455 68.2812C125.455 64.125 123.939 60.612 120.907 57.7422C117.875 54.8724 114.164 53.4375 109.773 53.4375H100.364V41.5625C100.364 33.349 97.3057 26.3477 91.1898 20.5586C85.0739 14.7695 77.6773 11.875 69 11.875C60.3227 11.875 52.9261 14.7695 46.8102 20.5586C40.6943 26.3477 37.6364 33.349 37.6364 41.5625H34.5C28.4364 41.5625 23.2614 43.5911 18.975 47.6484C14.6886 51.7057 12.5455 56.6042 12.5455 62.3438C12.5455 68.0833 14.6886 72.9818 18.975 77.0391C23.2614 81.0964 28.4364 83.125 34.5 83.125H50.1818V95H34.5Z" fill="#0D98FD"/>
</svg>
